<?xml version="1.0" encoding="UTF-8"?>
<svg xmlns="http://www.w3.org/2000/svg" xmlns:xlink="http://www.w3.org/1999/xlink" width="4001" height="4001" viewBox="0 0 4001 4001">
<path fill-rule="evenodd" fill="rgb(100%, 100%, 100%)" fill-opacity="1" d="M 0.515625 0.980469 L 4000.519531 0.980469 L 4000.519531 4000.980469 L 0.515625 4000.980469 L 0.515625 0.980469 "/>
<path fill-rule="evenodd" fill="rgb(43.920898%, 81.25%, 88.28125%)" fill-opacity="1" d="M 1233.429688 2980.351562 L 2767.609375 2980.351562 C 2798.078125 2980.351562 2823.011719 3005.285156 2823.011719 3035.753906 L 2823.011719 3187.042969 C 2823.011719 3188.820312 2822.988281 3190.589844 2822.941406 3192.355469 C 2822.898438 3194.121094 2822.828125 3195.882812 2822.738281 3197.640625 C 2822.648438 3199.394531 2822.539062 3201.140625 2822.398438 3202.886719 C 2822.269531 3204.628906 2822.121094 3206.367188 2821.941406 3208.097656 C 2821.761719 3209.828125 2821.558594 3211.554688 2821.339844 3213.273438 C 2821.121094 3214.992188 2820.878906 3216.703125 2820.621094 3218.410156 C 2820.351562 3220.117188 2820.070312 3221.816406 2819.769531 3223.507812 C 2819.460938 3225.199219 2819.140625 3226.886719 2818.789062 3228.5625 C 2818.449219 3230.242188 2818.078125 3231.910156 2817.691406 3233.574219 C 2817.308594 3235.238281 2816.898438 3236.890625 2816.480469 3238.539062 L 2816.46875 3238.539062 C 2816.050781 3240.1875 2815.601562 3241.828125 2815.128906 3243.460938 C 2814.671875 3245.09375 2814.179688 3246.714844 2813.679688 3248.332031 C 2813.171875 3249.945312 2812.648438 3251.554688 2812.101562 3253.152344 C 2811.558594 3254.75 2811 3256.339844 2810.421875 3257.921875 L 2810.410156 3257.921875 C 2809.828125 3259.503906 2809.230469 3261.074219 2808.609375 3262.636719 C 2808 3264.199219 2807.359375 3265.753906 2806.699219 3267.296875 C 2806.039062 3268.839844 2805.371094 3270.375 2804.679688 3271.898438 C 2803.988281 3273.425781 2803.28125 3274.941406 2802.550781 3276.445312 C 2801.820312 3277.953125 2801.070312 3279.445312 2800.308594 3280.929688 C 2799.550781 3282.414062 2798.769531 3283.890625 2797.96875 3285.355469 C 2797.171875 3286.816406 2796.359375 3288.273438 2795.519531 3289.714844 C 2794.691406 3291.15625 2793.839844 3292.589844 2792.980469 3294.007812 C 2792.109375 3295.429688 2791.230469 3296.839844 2790.328125 3298.238281 C 2789.429688 3299.636719 2788.519531 3301.023438 2787.589844 3302.398438 C 2786.648438 3303.773438 2785.710938 3305.136719 2784.75 3306.488281 C 2783.78125 3307.839844 2782.800781 3309.179688 2781.808594 3310.507812 C 2780.808594 3311.832031 2779.808594 3313.148438 2778.78125 3314.449219 C 2777.75 3315.753906 2776.71875 3317.042969 2775.660156 3318.320312 C 2774.601562 3319.597656 2773.539062 3320.863281 2772.449219 3322.113281 C 2771.359375 3323.367188 2770.269531 3324.605469 2769.148438 3325.828125 C 2768.039062 3327.054688 2766.910156 3328.265625 2765.769531 3329.464844 L 2765.761719 3329.464844 C 2764.621094 3330.660156 2763.46875 3331.847656 2762.300781 3333.015625 C 2761.121094 3334.1875 2759.941406 3335.34375 2758.738281 3336.488281 C 2757.539062 3337.628906 2756.328125 3338.757812 2755.109375 3339.871094 C 2753.878906 3340.984375 2752.640625 3342.085938 2751.390625 3343.171875 C 2750.140625 3344.257812 2748.878906 3345.328125 2747.601562 3346.382812 C 2746.320312 3347.4375 2745.03125 3348.476562 2743.730469 3349.503906 C 2742.429688 3350.527344 2741.109375 3351.535156 2739.78125 3352.53125 C 2738.460938 3353.523438 2737.121094 3354.503906 2735.769531 3355.46875 L 2735.761719 3355.46875 C 2734.410156 3356.429688 2733.050781 3357.378906 2731.679688 3358.308594 C 2730.300781 3359.238281 2728.910156 3360.15625 2727.519531 3361.054688 L 2727.511719 3361.054688 C 2726.121094 3361.953125 2724.710938 3362.835938 2723.289062 3363.699219 C 2721.871094 3364.5625 2720.429688 3365.414062 2718.988281 3366.246094 C 2717.550781 3367.078125 2716.101562 3367.894531 2714.628906 3368.691406 C 2713.171875 3369.488281 2711.691406 3370.269531 2710.210938 3371.03125 C 2708.71875 3371.796875 2707.230469 3372.542969 2705.730469 3373.269531 L 2705.71875 3373.269531 C 2704.21875 3373.996094 2702.699219 3374.707031 2701.179688 3375.398438 C 2699.648438 3376.09375 2698.121094 3376.765625 2696.578125 3377.421875 L 2696.570312 3377.421875 C 2695.03125 3378.078125 2693.480469 3378.71875 2691.910156 3379.335938 C 2690.351562 3379.953125 2688.78125 3380.554688 2687.199219 3381.136719 C 2685.621094 3381.71875 2684.03125 3382.28125 2682.429688 3382.824219 C 2680.828125 3383.367188 2679.230469 3383.894531 2677.609375 3384.398438 C 2675.988281 3384.90625 2674.371094 3385.390625 2672.738281 3385.855469 C 2671.109375 3386.320312 2669.46875 3386.769531 2667.820312 3387.195312 C 2666.171875 3387.621094 2664.519531 3388.027344 2662.851562 3388.414062 C 2661.191406 3388.800781 2659.519531 3389.167969 2657.839844 3389.515625 C 2656.160156 3389.859375 2654.480469 3390.183594 2652.789062 3390.488281 C 2651.089844 3390.792969 2649.398438 3391.078125 2647.691406 3391.339844 C 2645.980469 3391.601562 2644.269531 3391.84375 2642.550781 3392.0625 C 2640.828125 3392.28125 2639.109375 3392.484375 2637.378906 3392.660156 C 2635.640625 3392.835938 2633.910156 3392.992188 2632.160156 3393.125 C 2630.421875 3393.257812 2628.671875 3393.371094 2626.921875 3393.460938 C 2625.160156 3393.550781 2623.398438 3393.617188 2621.628906 3393.664062 C 2619.871094 3393.710938 2618.101562 3393.730469 2616.320312 3393.730469 L 1384.710938 3393.730469 C 1271.039062 3393.730469 1178.03125 3300.722656 1178.03125 3187.042969 L 1178.03125 3035.753906 C 1178.03125 3005.285156 1202.960938 2980.351562 1233.429688 2980.351562 "/>
<path fill-rule="evenodd" fill="rgb(23.535156%, 73.631287%, 83.984375%)" fill-opacity="1" d="M 2698.179688 2980.351562 L 1302.859375 2980.351562 C 1236.558594 2980.351562 1182.300781 2926.101562 1182.300781 2859.800781 C 1182.300781 2793.488281 1236.558594 2739.238281 1302.859375 2739.238281 L 2698.179688 2739.238281 C 2764.480469 2739.238281 2818.730469 2793.488281 2818.730469 2859.800781 C 2818.730469 2926.101562 2764.480469 2980.351562 2698.179688 2980.351562 "/>
<path fill-rule="evenodd" fill="rgb(43.920898%, 81.25%, 88.28125%)" fill-opacity="1" d="M 1219.058594 2490.429688 L 2781.980469 2490.429688 C 2804.550781 2490.429688 2823.011719 2508.898438 2823.011719 2531.46875 L 2823.011719 2698.210938 C 2823.011719 2720.78125 2804.550781 2739.238281 2781.980469 2739.238281 L 1219.058594 2739.238281 C 1196.488281 2739.238281 1178.03125 2720.78125 1178.03125 2698.210938 L 1178.03125 2531.46875 C 1178.03125 2508.898438 1196.488281 2490.429688 1219.058594 2490.429688 "/>
<path fill-rule="evenodd" fill="rgb(43.920898%, 81.25%, 88.28125%)" fill-opacity="1" d="M 1250.761719 1759.398438 C 1210.699219 1759.398438 1178.03125 1726.730469 1178.03125 1686.671875 L 1178.03125 1569.011719 C 1178.03125 1511.730469 1204.199219 1462.46875 1251.671875 1430.398438 L 1756.171875 1089.621094 L 2244.871094 1089.621094 L 2749.371094 1430.398438 C 2796.839844 1462.46875 2823.011719 1511.730469 2823.011719 1569.011719 L 2823.011719 1686.671875 C 2823.011719 1726.730469 2790.339844 1759.398438 2750.28125 1759.398438 C 2250.441406 1759.398438 1750.601562 1759.398438 1250.761719 1759.398438 "/>
<path fill-rule="evenodd" fill="rgb(23.535156%, 73.631287%, 83.984375%)" fill-opacity="1" d="M 2698.179688 2490.429688 L 1302.859375 2490.429688 C 1236.558594 2490.429688 1182.300781 2436.179688 1182.300781 2369.878906 C 1182.300781 2303.570312 1236.558594 2249.320312 1302.859375 2249.320312 L 2698.179688 2249.320312 C 2764.480469 2249.320312 2818.730469 2303.570312 2818.730469 2369.878906 C 2818.730469 2436.179688 2764.480469 2490.429688 2698.179688 2490.429688 "/>
<path fill-rule="evenodd" fill="rgb(43.920898%, 81.25%, 88.28125%)" fill-opacity="1" d="M 1219.058594 2000.511719 L 2781.980469 2000.511719 C 2804.550781 2000.511719 2823.011719 2018.980469 2823.011719 2041.550781 L 2823.011719 2208.289062 C 2823.011719 2230.859375 2804.550781 2249.320312 2781.980469 2249.320312 L 1219.058594 2249.320312 C 1196.488281 2249.320312 1178.03125 2230.859375 1178.03125 2208.289062 L 1178.03125 2041.550781 C 1178.03125 2018.980469 1196.488281 2000.511719 1219.058594 2000.511719 "/>
<path fill-rule="evenodd" fill="rgb(23.535156%, 73.631287%, 83.984375%)" fill-opacity="1" d="M 2698.179688 2000.511719 L 1302.859375 2000.511719 C 1236.558594 2000.511719 1182.300781 1946.261719 1182.300781 1879.960938 C 1182.300781 1813.648438 1236.558594 1759.398438 1302.859375 1759.398438 L 2698.179688 1759.398438 C 2764.480469 1759.398438 2818.730469 1813.648438 2818.730469 1879.960938 C 2818.730469 1946.261719 2764.480469 2000.511719 2698.179688 2000.511719 "/>
<path fill-rule="evenodd" fill="rgb(23.535156%, 73.631287%, 83.984375%)" fill-opacity="1" d="M 1761.871094 1089.621094 L 2239.171875 1089.621094 L 2239.171875 846.878906 L 1761.871094 846.878906 L 1761.871094 1089.621094 "/>
<path fill-rule="evenodd" fill="rgb(16.479492%, 66.209412%, 77.734375%)" fill-opacity="1" d="M 2234.058594 846.878906 L 1766.980469 846.878906 C 1740.730469 846.878906 1719.25 825.398438 1719.25 799.148438 L 1719.25 655.960938 C 1719.25 629.710938 1740.730469 608.230469 1766.980469 608.230469 L 2234.058594 608.230469 C 2260.308594 608.230469 2281.789062 629.710938 2281.789062 655.960938 L 2281.789062 799.148438 C 2281.789062 825.398438 2260.308594 846.878906 2234.058594 846.878906 "/>
<path fill-rule="evenodd" fill="rgb(32.93457%, 77.34375%, 86.326599%)" fill-opacity="1" d="M 2698.179688 2980.351562 L 2609.929688 2980.351562 C 2609.929688 3118.21875 2608.75 3255.898438 2608.75 3393.730469 L 2616.320312 3393.730469 C 2618.101562 3393.730469 2619.871094 3393.710938 2621.628906 3393.664062 C 2623.398438 3393.617188 2625.160156 3393.550781 2626.921875 3393.460938 C 2628.671875 3393.371094 2630.421875 3393.257812 2632.160156 3393.125 C 2633.910156 3392.992188 2635.640625 3392.835938 2637.378906 3392.660156 C 2639.109375 3392.484375 2640.828125 3392.28125 2642.550781 3392.0625 C 2644.269531 3391.84375 2645.980469 3391.601562 2647.691406 3391.339844 C 2649.398438 3391.078125 2651.089844 3390.792969 2652.789062 3390.488281 C 2654.480469 3390.183594 2656.160156 3389.859375 2657.839844 3389.515625 C 2659.519531 3389.167969 2661.191406 3388.800781 2662.851562 3388.414062 C 2664.519531 3388.027344 2666.171875 3387.621094 2667.820312 3387.195312 C 2669.46875 3386.769531 2671.109375 3386.320312 2672.738281 3385.855469 C 2674.371094 3385.390625 2675.988281 3384.90625 2677.609375 3384.398438 C 2679.230469 3383.894531 2680.828125 3383.367188 2682.429688 3382.824219 C 2684.03125 3382.28125 2685.621094 3381.71875 2687.199219 3381.136719 C 2688.78125 3380.554688 2690.351562 3379.953125 2691.910156 3379.335938 C 2693.480469 3378.71875 2695.03125 3378.078125 2696.570312 3377.421875 L 2696.578125 3377.421875 C 2698.121094 3376.765625 2699.648438 3376.09375 2701.179688 3375.398438 C 2702.699219 3374.707031 2704.21875 3373.996094 2705.71875 3373.269531 L 2705.730469 3373.269531 C 2707.230469 3372.542969 2708.71875 3371.796875 2710.210938 3371.03125 C 2711.691406 3370.269531 2713.171875 3369.488281 2714.628906 3368.691406 C 2716.101562 3367.894531 2717.550781 3367.078125 2718.988281 3366.246094 C 2720.429688 3365.414062 2721.871094 3364.5625 2723.289062 3363.699219 C 2724.710938 3362.835938 2726.121094 3361.953125 2727.511719 3361.054688 L 2727.519531 3361.054688 C 2728.910156 3360.15625 2730.300781 3359.238281 2731.679688 3358.308594 C 2733.050781 3357.378906 2734.410156 3356.429688 2735.761719 3355.46875 L 2735.769531 3355.46875 C 2737.121094 3354.503906 2738.460938 3353.523438 2739.78125 3352.53125 C 2741.109375 3351.535156 2742.429688 3350.527344 2743.730469 3349.503906 C 2745.03125 3348.476562 2746.320312 3347.4375 2747.601562 3346.382812 C 2748.878906 3345.328125 2750.140625 3344.257812 2751.390625 3343.171875 C 2752.640625 3342.085938 2753.878906 3340.984375 2755.109375 3339.871094 C 2756.328125 3338.757812 2757.539062 3337.628906 2758.738281 3336.488281 C 2759.941406 3335.34375 2761.128906 3334.1875 2762.300781 3333.015625 C 2763.46875 3331.847656 2764.621094 3330.660156 2765.761719 3329.464844 L 2765.769531 3329.464844 C 2766.910156 3328.265625 2768.039062 3327.054688 2769.148438 3325.828125 C 2770.269531 3324.601562 2771.359375 3323.367188 2772.449219 3322.113281 C 2773.53125 3320.863281 2774.601562 3319.597656 2775.660156 3318.320312 C 2776.71875 3317.042969 2777.75 3315.753906 2778.78125 3314.449219 C 2779.808594 3313.148438 2780.808594 3311.832031 2781.808594 3310.507812 C 2782.800781 3309.179688 2783.78125 3307.839844 2784.75 3306.488281 C 2785.710938 3305.136719 2786.648438 3303.773438 2787.589844 3302.398438 C 2788.519531 3301.023438 2789.429688 3299.636719 2790.328125 3298.238281 C 2791.230469 3296.839844 2792.109375 3295.429688 2792.980469 3294.007812 C 2793.839844 3292.589844 2794.691406 3291.15625 2795.519531 3289.714844 C 2796.359375 3288.273438 2797.171875 3286.820312 2797.96875 3285.355469 C 2798.769531 3283.890625 2799.550781 3282.414062 2800.308594 3280.929688 C 2801.070312 3279.445312 2801.820312 3277.953125 2802.550781 3276.445312 C 2803.28125 3274.941406 2803.988281 3273.425781 2804.679688 3271.898438 C 2805.371094 3270.375 2806.039062 3268.839844 2806.699219 3267.296875 C 2807.359375 3265.753906 2808 3264.199219 2808.609375 3262.636719 C 2809.230469 3261.074219 2809.828125 3259.503906 2810.410156 3257.921875 L 2810.421875 3257.921875 C 2811 3256.339844 2811.558594 3254.75 2812.101562 3253.152344 C 2812.648438 3251.554688 2813.171875 3249.945312 2813.679688 3248.332031 C 2814.179688 3246.714844 2814.671875 3245.09375 2815.128906 3243.460938 C 2815.601562 3241.828125 2816.050781 3240.1875 2816.46875 3238.539062 L 2816.480469 3238.539062 C 2816.898438 3236.890625 2817.308594 3235.238281 2817.691406 3233.574219 C 2818.078125 3231.910156 2818.449219 3230.242188 2818.789062 3228.5625 C 2819.140625 3226.886719 2819.460938 3225.199219 2819.769531 3223.507812 C 2820.070312 3221.816406 2820.351562 3220.117188 2820.621094 3218.410156 C 2820.878906 3216.703125 2821.121094 3214.992188 2821.339844 3213.273438 C 2821.558594 3211.554688 2821.761719 3209.828125 2821.941406 3208.097656 C 2822.121094 3206.367188 2822.269531 3204.628906 2822.398438 3202.886719 C 2822.539062 3201.140625 2822.648438 3199.390625 2822.738281 3197.640625 C 2822.828125 3195.882812 2822.898438 3194.121094 2822.941406 3192.355469 C 2822.988281 3190.589844 2823.011719 3188.820312 2823.011719 3187.042969 L 2823.011719 3035.753906 C 2823.011719 3005.285156 2798.078125 2980.351562 2767.609375 2980.351562 L 2698.179688 2980.351562 "/>
<path fill-rule="evenodd" fill="rgb(16.479492%, 66.209412%, 77.734375%)" fill-opacity="1" d="M 2609.929688 2980.351562 L 2698.179688 2980.351562 C 2764.480469 2980.351562 2818.730469 2926.109375 2818.730469 2859.800781 C 2818.730469 2793.488281 2764.480469 2739.238281 2698.179688 2739.238281 L 2608.761719 2739.238281 L 2608.761719 2980.351562 L 2609.929688 2980.351562 "/>
<path fill-rule="evenodd" fill="rgb(32.93457%, 77.34375%, 86.326599%)" fill-opacity="1" d="M 2608.761719 2739.238281 L 2781.980469 2739.238281 C 2804.550781 2739.238281 2823.011719 2720.78125 2823.011719 2698.210938 L 2823.011719 2531.46875 C 2823.011719 2508.898438 2804.550781 2490.429688 2781.980469 2490.429688 L 2608.761719 2490.429688 C 2608.761719 2573.390625 2608.761719 2656.398438 2608.761719 2739.238281 "/>
<path fill-rule="evenodd" fill="rgb(16.479492%, 66.209412%, 77.734375%)" fill-opacity="1" d="M 2608.761719 2490.429688 L 2698.179688 2490.429688 C 2764.480469 2490.429688 2818.730469 2436.191406 2818.730469 2369.878906 C 2818.730469 2303.570312 2764.480469 2249.320312 2698.179688 2249.320312 L 2608.761719 2249.320312 L 2608.761719 2490.429688 "/>
<path fill-rule="evenodd" fill="rgb(32.93457%, 77.34375%, 86.326599%)" fill-opacity="1" d="M 2608.761719 2249.320312 L 2781.980469 2249.320312 C 2804.550781 2249.320312 2823.011719 2230.859375 2823.011719 2208.289062 L 2823.011719 2041.550781 C 2823.011719 2018.980469 2804.550781 2000.511719 2781.980469 2000.511719 L 2608.761719 2000.511719 C 2608.761719 2083.371094 2608.761719 2166.46875 2608.761719 2249.320312 "/>
<path fill-rule="evenodd" fill="rgb(16.479492%, 66.209412%, 77.734375%)" fill-opacity="1" d="M 2031.789062 1089.621094 L 2239.171875 1089.621094 L 2239.171875 846.878906 L 2026.089844 846.878906 L 2026.089844 1089.621094 L 2031.789062 1089.621094 "/>
<path fill-rule="evenodd" fill="rgb(14.501953%, 55.664062%, 66.209412%)" fill-opacity="1" d="M 2026.089844 846.878906 L 2234.058594 846.878906 C 2260.308594 846.878906 2281.789062 825.398438 2281.789062 799.148438 L 2281.789062 655.960938 C 2281.789062 629.699219 2260.308594 608.230469 2234.058594 608.230469 L 2020.980469 608.230469 C 2047.230469 608.230469 2068.699219 629.699219 2068.699219 655.960938 L 2068.699219 799.148438 C 2068.699219 825.398438 2047.230469 846.878906 2020.980469 846.878906 L 2026.089844 846.878906 "/>
<path fill-rule="evenodd" fill="rgb(32.93457%, 77.34375%, 86.326599%)" fill-opacity="1" d="M 2031.789062 1089.621094 L 2536.289062 1430.398438 C 2577.929688 1458.53125 2603.179688 1499.890625 2608.761719 1548.300781 L 2608.761719 1759.398438 L 2750.28125 1759.398438 C 2790.339844 1759.398438 2823.011719 1726.730469 2823.011719 1686.671875 L 2823.011719 1569.011719 C 2823.011719 1511.730469 2796.839844 1462.46875 2749.371094 1430.398438 L 2244.871094 1089.621094 L 2031.789062 1089.621094 "/>
<path fill-rule="evenodd" fill="rgb(16.479492%, 66.209412%, 77.734375%)" fill-opacity="1" d="M 2608.761719 2000.511719 L 2698.179688 2000.511719 C 2764.480469 2000.511719 2818.730469 1946.269531 2818.730469 1879.960938 C 2818.730469 1813.648438 2764.480469 1759.398438 2698.179688 1759.398438 L 2608.761719 1759.398438 L 2608.761719 2000.511719 "/>
</svg>
