<?xml version="1.0" encoding="UTF-8"?>
<svg xmlns="http://www.w3.org/2000/svg" xmlns:xlink="http://www.w3.org/1999/xlink" width="1685" height="2776" viewBox="0 0 1685 2776">
<path fill-rule="nonzero" fill="rgb(0%, 0%, 0%)" fill-opacity="1" d="M 199.582031 1.46875 C 195.761719 1.898438 185.027344 4.289062 175.722656 6.890625 C 102.480469 26.410156 45.9375 86.679688 23.511719 169.078125 C 18.738281 186.640625 18.5 194.230469 17.785156 340.808594 C 17.070312 440.980469 16.113281 494.320312 14.445312 494.320312 C 13.253906 494.320312 9.433594 496.921875 6.332031 499.960938 L 0.367188 505.808594 L 0.367188 605.121094 L 6.332031 610.320312 C 9.433594 613.359375 13.253906 615.75 14.683594 615.75 C 16.113281 615.75 17.070312 631.359375 17.070312 661.929688 L 17.070312 708.328125 L 11.34375 710.929688 C 0.847656 716.140625 0.367188 720.25 0.367188 801.351562 L 0.367188 878.320312 L 6.332031 883.53125 C 9.433594 886.558594 13.253906 888.949219 14.683594 888.949219 C 16.113281 888.949219 17.070312 900.011719 17.070312 920.390625 C 17.070312 940.769531 16.113281 951.828125 14.683594 951.828125 C 13.253906 951.828125 9.433594 954.210938 6.332031 957.25 L 0.367188 962.449219 L 0.367188 1039.429688 C 0.367188 1120.519531 0.847656 1124.640625 11.34375 1129.839844 L 17.070312 1132.441406 L 17.785156 1860.121094 C 18.5 2538.140625 18.738281 2588.878906 22.554688 2602.539062 C 46.414062 2689.269531 100.808594 2748.03125 176.914062 2769.28125 L 194.808594 2774.269531 L 830.613281 2774.917969 C 1396.039062 2775.351562 1468.570312 2775.136719 1484.789062 2772.097656 C 1524.160156 2764.945312 1557.558594 2747.816406 1587.140625 2719.628906 C 1627.941406 2680.597656 1651.789062 2631.8125 1658.46875 2573.484375 C 1660.140625 2558.742188 1660.859375 2280.332031 1660.859375 1720.269531 L 1660.859375 888.949219 L 1666.820312 888.949219 C 1670.160156 888.949219 1675.648438 886.558594 1678.75 883.53125 L 1684.71875 878.320312 L 1684.71875 801.128906 C 1684.71875 746.488281 1684 722.421875 1681.859375 719.171875 C 1678.039062 712.671875 1672.550781 709.191406 1666.351562 708.980469 L 1660.859375 708.980469 L 1660.859375 466.351562 C 1660.859375 313.921875 1659.910156 215.480469 1658.46875 201.820312 C 1654.890625 170.601562 1646.308594 141.980469 1632.230469 115.519531 C 1606.699219 66.730469 1565.429688 29.441406 1518.429688 11.878906 C 1483.839844 -0.699219 1526.070312 -0.0507812 837.292969 0.171875 C 490.40625 0.390625 203.636719 1.03125 199.582031 1.46875 Z M 855.1875 64.570312 C 859.960938 68.898438 861.628906 73.019531 861.628906 78.878906 C 861.628906 89.28125 858.527344 94.488281 849.222656 98.828125 C 828.945312 108.371094 806.757812 88.199219 817.253906 69.769531 C 822.027344 61.101562 827.035156 58.710938 839.203125 58.5 C 846.597656 58.5 850.179688 59.800781 855.1875 64.570312 Z M 532.632812 153.03125 C 541.460938 160.621094 543.605469 170.808594 538.597656 180.359375 C 529.054688 198.78125 500.664062 199.648438 490.644531 182.089844 C 476.566406 157.148438 510.445312 133.730469 532.632812 153.03125 Z M 1014.320312 164.519531 C 1017.898438 170.808594 1017.179688 177.96875 1012.648438 182.519531 C 1009.070312 186.210938 1000.480469 186.429688 843.019531 186.429688 C 692 186.429688 676.734375 186.210938 672.675781 182.738281 C 667.90625 178.839844 667.191406 171.03125 670.769531 164.519531 C 673.152344 160.410156 677.6875 160.410156 842.542969 160.410156 C 1007.398438 160.410156 1011.929688 160.410156 1014.320312 164.519531 Z M 1620.300781 1387.648438 L 1620.300781 2463.121094 L 55.242188 2463.121094 L 55.242188 312.179688 L 1620.300781 312.179688 Z M 869.980469 2517.761719 C 897.414062 2524.046875 929.625 2547.464844 943.222656 2570.667969 C 972.328125 2619.886719 954.675781 2682.765625 903.859375 2712.6875 C 880.714844 2726.347656 863.300781 2730.46875 833.476562 2729.382812 C 809.859375 2728.734375 806.519531 2728.082031 789.339844 2720.710938 C 744.964844 2701.414062 720.152344 2665.855469 720.152344 2621.402344 C 720.390625 2589.3125 731.367188 2566.113281 757.371094 2543.996094 C 776.933594 2527.300781 798.167969 2517.976562 824.648438 2514.507812 C 833.953125 2513.207031 858.050781 2514.941406 869.980469 2517.761719 Z M 869.980469 2517.761719 "/>
</svg>
