<?xml version="1.0" encoding="UTF-8"?>
<svg xmlns="http://www.w3.org/2000/svg" xmlns:xlink="http://www.w3.org/1999/xlink" width="2112" height="2112" viewBox="0 0 2112 2112">
<rect x="-211.2" y="-211.2" width="2534.4" height="2534.4" fill="rgb(82.03125%, 99.609375%, 100%)" fill-opacity="1"/>
<path fill-rule="nonzero" fill="rgb(92.1875%, 10.984802%, 13.719177%)" fill-opacity="1" d="M 1591.308594 1204.527344 C 1491.03125 1521.320312 1088.730469 1778.144531 848.765625 1702.195312 C 608.828125 1626.210938 427.613281 1184.652344 527.90625 867.851562 C 611.453125 604 875.871094 527.5 1189.25 626.71875 C 1502.710938 725.949219 1674.839844 940.699219 1591.308594 1204.527344 "/>
<path fill-rule="nonzero" fill="rgb(49.414062%, 70.117188%, 21.946716%)" fill-opacity="1" d="M 1573.421875 843.261719 C 1573.421875 843.261719 1519.121094 706.679688 1362.019531 656.960938 C 1313.140625 641.46875 1254.179688 638.398438 1218.289062 638.148438 L 1299.289062 422.46875 L 1216.808594 396.371094 L 1158.960938 619.339844 C 1129.449219 598.941406 1079.460938 567.570312 1030.609375 552.109375 C 873.601562 502.410156 750.484375 582.699219 750.484375 582.699219 C 750.484375 582.699219 791.242188 683.019531 900.460938 717.628906 C 816.257812 761.320312 789.996094 884.109375 789.996094 884.109375 C 789.996094 884.109375 909.195312 932.859375 1009.25 880.988281 C 992.300781 973.160156 1053.128906 1056.679688 1053.128906 1056.679688 C 1053.128906 1056.679688 1150.949219 1023.390625 1190.191406 938.25 C 1242.101562 1038.179688 1367.660156 1067.011719 1367.660156 1067.011719 C 1367.660156 1067.011719 1416.929688 951.46875 1373.179688 867.269531 C 1482.390625 901.851562 1573.421875 843.261719 1573.421875 843.261719 "/>
<path fill-rule="nonzero" fill="rgb(68.554688%, 6.665039%, 8.616638%)" fill-opacity="1" d="M 1054.449219 1346.4375 C 1044.480469 1377.894531 1024.441406 1386.992188 1005.230469 1380.941406 C 986.054688 1374.867188 974.878906 1355.867188 984.828125 1324.429688 C 994.742188 1293.113281 1041.238281 1267.242188 1041.238281 1267.242188 C 1041.238281 1267.242188 1064.371094 1315.128906 1054.449219 1346.4375 "/>
<path fill-rule="nonzero" fill="rgb(68.554688%, 6.665039%, 8.616638%)" fill-opacity="1" d="M 685.460938 909.03125 C 675.539062 940.441406 655.503906 949.578125 636.269531 943.511719 C 617.046875 937.421875 605.890625 918.398438 615.851562 886.96875 C 625.789062 855.578125 672.261719 829.828125 672.261719 829.828125 C 672.261719 829.828125 695.40625 877.640625 685.460938 909.03125 "/>
<path fill-rule="nonzero" fill="rgb(68.554688%, 6.665039%, 8.616638%)" fill-opacity="1" d="M 854.574219 1158.164062 C 844.652344 1189.578125 824.613281 1198.671875 805.4375 1192.597656 C 786.261719 1186.523438 775.082031 1167.566406 785.027344 1136.132812 C 794.96875 1104.789062 841.402344 1079 841.402344 1079 C 841.402344 1079 864.523438 1126.828125 854.574219 1158.164062 "/>
<path fill-rule="nonzero" fill="rgb(68.554688%, 6.665039%, 8.616638%)" fill-opacity="1" d="M 681.855469 1254.703125 C 671.929688 1286.125 651.816406 1295.230469 632.710938 1289.1875 C 613.507812 1283.082031 602.355469 1264.113281 612.300781 1232.679688 C 622.246094 1201.339844 668.671875 1175.585938 668.671875 1175.585938 C 668.671875 1175.585938 691.792969 1223.371094 681.855469 1254.703125 "/>
<path fill-rule="nonzero" fill="rgb(68.554688%, 6.665039%, 8.616638%)" fill-opacity="1" d="M 824.929688 1493.601562 C 814.96875 1525.011719 794.964844 1534.210938 775.738281 1528.121094 C 756.511719 1522.050781 745.417969 1502.980469 755.367188 1471.597656 C 765.277344 1440.230469 811.726562 1414.460938 811.726562 1414.460938 C 811.726562 1414.460938 834.855469 1462.234375 824.929688 1493.601562 "/>
<path fill-rule="nonzero" fill="rgb(68.554688%, 6.665039%, 8.616638%)" fill-opacity="1" d="M 1182.5 1558.445312 C 1172.550781 1589.828125 1152.609375 1598.933594 1133.378906 1592.851562 C 1114.101562 1586.769531 1103.070312 1567.832031 1112.988281 1536.460938 C 1122.941406 1505.078125 1169.371094 1479.28125 1169.371094 1479.28125 C 1169.371094 1479.28125 1192.410156 1527.082031 1182.5 1558.445312 "/>
<path fill-rule="nonzero" fill="rgb(68.554688%, 6.665039%, 8.616638%)" fill-opacity="1" d="M 1224.078125 1150.105469 C 1214.160156 1181.519531 1194.128906 1190.664062 1174.941406 1184.585938 C 1155.71875 1178.511719 1144.511719 1159.480469 1154.46875 1128.050781 C 1164.398438 1096.710938 1210.910156 1070.890625 1210.910156 1070.890625 C 1210.910156 1070.890625 1234.011719 1118.742188 1224.078125 1150.105469 "/>
<path fill-rule="nonzero" fill="rgb(68.554688%, 6.665039%, 8.616638%)" fill-opacity="1" d="M 1511.511719 977.941406 C 1501.558594 1009.320312 1481.519531 1018.46875 1462.339844 1012.398438 C 1443.140625 1006.300781 1431.988281 987.320312 1441.960938 955.910156 C 1451.878906 924.550781 1498.328125 898.71875 1498.328125 898.71875 C 1498.328125 898.71875 1521.421875 946.578125 1511.511719 977.941406 "/>
<path fill-rule="nonzero" fill="rgb(68.554688%, 6.665039%, 8.616638%)" fill-opacity="1" d="M 1513.089844 1214.851562 C 1503.179688 1246.167969 1483.109375 1255.328125 1463.929688 1249.253906 C 1444.691406 1243.144531 1433.558594 1224.15625 1443.46875 1192.792969 C 1453.421875 1161.351562 1499.921875 1135.632812 1499.921875 1135.632812 C 1499.921875 1135.632812 1523.039062 1183.417969 1513.089844 1214.851562 "/>
<path fill-rule="nonzero" fill="rgb(68.554688%, 6.665039%, 8.616638%)" fill-opacity="1" d="M 1347.039062 1376.585938 C 1337.089844 1407.96875 1317.039062 1417.164062 1297.839844 1411.058594 C 1278.628906 1405.011719 1267.511719 1385.964844 1277.460938 1354.582031 C 1287.398438 1323.191406 1333.828125 1297.4375 1333.828125 1297.4375 C 1333.828125 1297.4375 1356.949219 1345.230469 1347.039062 1376.585938 "/>
</svg>
